<svg width="240" height="240" viewBox="0 0 240 240" fill="none" xmlns="http://www.w3.org/2000/svg">
  <rect width="240" height="240" fill="white"/>
  <rect x="30" y="30" width="30" height="30" fill="#4285F4"/>
  <rect x="60" y="30" width="30" height="30" fill="#4285F4"/>
  <rect x="90" y="30" width="30" height="30" fill="#4285F4"/>
  <rect x="30" y="60" width="30" height="30" fill="#4285F4"/>
  <rect x="90" y="60" width="30" height="30" fill="#4285F4"/>
  <rect x="30" y="90" width="30" height="30" fill="#4285F4"/>
  <rect x="60" y="90" width="30" height="30" fill="#4285F4"/>
  <rect x="90" y="90" width="30" height="30" fill="#4285F4"/>
  
  <rect x="150" y="30" width="30" height="30" fill="#4285F4"/>
  <rect x="180" y="30" width="30" height="30" fill="#4285F4"/>
  <rect x="150" y="60" width="30" height="30" fill="#4285F4"/>
  <rect x="180" y="90" width="30" height="30" fill="#4285F4"/>
  
  <rect x="30" y="150" width="30" height="30" fill="#4285F4"/>
  <rect x="60" y="150" width="30" height="30" fill="#4285F4"/>
  <rect x="90" y="150" width="30" height="30" fill="#4285F4"/>
  <rect x="60" y="180" width="30" height="30" fill="#4285F4"/>
  <rect x="90" y="180" width="30" height="30" fill="#4285F4"/>
  
  <rect x="150" y="150" width="30" height="30" fill="#4285F4"/>
  <rect x="180" y="150" width="30" height="30" fill="#4285F4"/>
  <rect x="150" y="180" width="30" height="30" fill="#4285F4"/>
  <rect x="180" y="180" width="30" height="30" fill="#4285F4"/>
  
  <!-- Center Logo -->
  <rect x="120" y="60" width="30" height="30" fill="#4285F4" fill-opacity="0.5"/>
  <rect x="150" y="90" width="30" height="30" fill="#4285F4" fill-opacity="0.5"/>
  <rect x="120" y="120" width="30" height="30" fill="#4285F4" fill-opacity="0.5"/>
  <rect x="90" y="120" width="30" height="30" fill="#4285F4" fill-opacity="0.5"/>
</svg>